<svg width="21" height="20" viewBox="0 0 21 20" fill="none" xmlns="http://www.w3.org/2000/svg">
<path d="M6.68805 15.7282C5.46942 15.7282 4.50586 16.6991 4.50586 17.8641C4.50586 19.0569 5.49776 20 6.68805 20C7.90667 20 8.87023 19.0292 8.87023 17.8641C8.89857 16.6713 7.90667 15.7282 6.68805 15.7282ZM6.68805 19.0569C6.00788 19.0569 5.46942 18.5298 5.46942 17.8641C5.46942 17.1984 6.00788 16.6713 6.68805 16.6713C7.36821 16.6713 7.90667 17.1984 7.90667 17.8641C7.90667 18.5298 7.36821 19.0569 6.68805 19.0569Z" fill="white"/>
<path d="M15.9556 15.7282C14.737 15.7282 13.7734 16.6991 13.7734 17.8641C13.7734 19.0569 14.7653 20 15.9556 20C17.1459 20 18.1378 19.0292 18.1378 17.8641C18.1378 16.6713 17.1742 15.7282 15.9556 15.7282ZM15.9556 19.0569C15.2755 19.0569 14.737 18.5298 14.737 17.8641C14.737 17.1984 15.2755 16.6713 15.9556 16.6713C16.6358 16.6713 17.1742 17.1984 17.1742 17.8641C17.1742 18.5298 16.6358 19.0569 15.9556 19.0569Z" fill="white"/>
<path d="M20.915 3.19001C20.8016 3.07906 20.6883 3.02358 20.5182 2.99584L4.64777 2.77393L4.22267 1.47018C3.91093 0.610264 3.06073 0 2.12551 0H0.481781C0.226721 0 0 0.221914 0 0.471567C0 0.721221 0.226721 0.943135 0.481781 0.943135H2.12551C2.66397 0.943135 3.11741 1.27601 3.28745 1.77531L6.37652 10.9015L6.12146 11.4563C5.83806 12.1498 5.92308 12.9265 6.34818 13.5368C6.74494 14.147 7.4251 14.5076 8.16194 14.5354H17.6275C17.8826 14.5354 18.1093 14.3135 18.1093 14.0638C18.1093 13.8141 17.8826 13.5922 17.6275 13.5922H8.19028C7.76518 13.5922 7.39676 13.3703 7.17004 13.0097C6.94332 12.6768 6.91498 12.233 7.05668 11.8724L7.25506 11.4563L17.5142 10.4022C18.6478 10.2913 19.5547 9.48682 19.8381 8.40499L20.9717 3.6061C21.0283 3.46741 21 3.30097 20.915 3.19001ZM18.8462 8.18308C18.7045 8.87656 18.1093 9.37587 17.3725 9.43135L7.22672 10.4577L4.95951 3.7448L19.8947 3.96671L18.8462 8.18308Z" fill="white"/>
</svg>
