<svg width="10" height="10" viewBox="0 0 10 10" fill="none" xmlns="http://www.w3.org/2000/svg">
<path fill-rule="evenodd" clip-rule="evenodd" d="M5 9.99997C6.32608 9.99997 7.59785 9.47319 8.53553 8.5355C9.47322 7.59782 10 6.32605 10 4.99997C10 3.67389 9.47322 2.40212 8.53553 1.46444C7.59785 0.526754 6.32608 -3.05176e-05 5 -3.05176e-05C3.67392 -3.05176e-05 2.40215 0.526754 1.46447 1.46444C0.526784 2.40212 0 3.67389 0 4.99997C0 6.32605 0.526784 7.59782 1.46447 8.5355C2.40215 9.47319 3.67392 9.99997 5 9.99997ZM5.625 2.49997C5.625 2.33421 5.55915 2.17524 5.44194 2.05803C5.32473 1.94082 5.16576 1.87497 5 1.87497C4.83424 1.87497 4.67527 1.94082 4.55806 2.05803C4.44085 2.17524 4.375 2.33421 4.375 2.49997V4.99997C4.37504 5.16572 4.44091 5.32466 4.55813 5.44184L6.32563 7.20997C6.38369 7.26804 6.45263 7.3141 6.5285 7.34553C6.60437 7.37695 6.68569 7.39313 6.76781 7.39313C6.84993 7.39313 6.93125 7.37695 7.00712 7.34553C7.08299 7.3141 7.15193 7.26804 7.21 7.20997C7.26807 7.1519 7.31413 7.08296 7.34556 7.00709C7.37699 6.93122 7.39316 6.8499 7.39316 6.76778C7.39316 6.68566 7.37699 6.60434 7.34556 6.52847C7.31413 6.4526 7.26807 6.38366 7.21 6.32559L5.625 4.74122V2.49997Z" fill="#10084C"/>
</svg>
