<svg width="36" height="29" viewBox="0 0 36 29" fill="none" xmlns="http://www.w3.org/2000/svg">
<path d="M0 1.99995C0 0.895385 0.895431 -4.57764e-05 2 -4.57764e-05H13C14.1046 -4.57764e-05 15 0.895385 15 1.99995V13C15 14.1045 14.1046 15 13 15H2C0.89543 15 0 14.1045 0 13V1.99995Z" fill="#2E9AD6"/>
<path d="M21.6667 22.6667V6C21.6667 5.55797 21.4911 5.13404 21.1785 4.82148C20.8659 4.50892 20.442 4.33333 20 4.33333H6.66667C6.22464 4.33333 5.80072 4.50892 5.48816 4.82148C5.17559 5.13404 5 5.55797 5 6V22.6667C5 23.1087 5.17559 23.5326 5.48816 23.8452C5.80072 24.1577 6.22464 24.3333 6.66667 24.3333H8.33333M21.6667 22.6667C21.6667 23.1087 21.4911 23.5326 21.1785 23.8452C20.8659 24.1577 20.442 24.3333 20 24.3333H15M21.6667 22.6667V9.33333C21.6667 8.8913 21.8423 8.46738 22.1548 8.15482C22.4674 7.84226 22.8913 7.66666 23.3333 7.66666H27.6433C28.0853 7.66676 28.5092 7.84241 28.8217 8.155L34.5117 13.845C34.8242 14.1575 34.9999 14.5813 35 15.0233V22.6667C35 23.1087 34.8244 23.5326 34.5118 23.8452C34.1993 24.1577 33.7754 24.3333 33.3333 24.3333H31.6667M21.6667 22.6667C21.6667 23.1087 21.8423 23.5326 22.1548 23.8452C22.4674 24.1577 22.8913 24.3333 23.3333 24.3333H25M8.33333 24.3333C8.33333 25.2174 8.68452 26.0652 9.30964 26.6904C9.93477 27.3155 10.7826 27.6667 11.6667 27.6667C12.5507 27.6667 13.3986 27.3155 14.0237 26.6904C14.6488 26.0652 15 25.2174 15 24.3333M8.33333 24.3333C8.33333 23.4493 8.68452 22.6014 9.30964 21.9763C9.93477 21.3512 10.7826 21 11.6667 21C12.5507 21 13.3986 21.3512 14.0237 21.9763C14.6488 22.6014 15 23.4493 15 24.3333M31.6667 24.3333C31.6667 25.2174 31.3155 26.0652 30.6904 26.6904C30.0652 27.3155 29.2174 27.6667 28.3333 27.6667C27.4493 27.6667 26.6014 27.3155 25.9763 26.6904C25.3512 26.0652 25 25.2174 25 24.3333M31.6667 24.3333C31.6667 23.4493 31.3155 22.6014 30.6904 21.9763C30.0652 21.3512 29.2174 21 28.3333 21C27.4493 21 26.6014 21.3512 25.9763 21.9763C25.3512 22.6014 25 23.4493 25 24.3333" stroke="#10084C" stroke-linecap="round" stroke-linejoin="round"/>
</svg>
