<svg width="20" height="16" viewBox="0 0 20 16" fill="none" xmlns="http://www.w3.org/2000/svg">
<path d="M14.3446 -3.18267e-05C12.6657 -3.18267e-05 11.0751 0.711712 10.0147 1.93591C8.95434 0.683242 7.36377 -0.0285016 5.68483 -3.18267e-05C2.53314 -3.18267e-05 0 2.44837 0 5.49463C0 10.6761 9.36672 15.7437 9.74963 15.943C9.89691 16.0284 10.1031 16.0284 10.2504 15.943C10.6333 15.7437 20 10.7615 20 5.49463C20 2.44837 17.4669 -3.18267e-05 14.3446 -3.18267e-05ZM10.0147 14.9466C8.54197 14.121 1.00147 9.67968 1.00147 5.49463C1.00147 3.01776 3.09278 0.996409 5.65538 0.996409C7.2165 0.967939 8.7187 1.73662 9.54345 3.01776C9.72018 3.24552 10.0442 3.30246 10.2798 3.13164C10.3387 3.10317 10.3682 3.0747 10.3976 3.01776C11.8409 0.93947 14.7275 0.341605 16.8778 1.70815C18.2032 2.53378 18.9985 3.95726 18.9985 5.49463C18.9985 9.73662 11.458 14.1494 10.0147 14.9466Z" fill="white"/>
</svg>
