<svg width="14" height="14" viewBox="0 0 14 14" fill="none" xmlns="http://www.w3.org/2000/svg">
<path d="M14 0.602992L14 13.3969C14.0004 13.6227 13.8774 13.8295 13.6816 13.9327C13.4831 14.0372 13.2441 14.0189 13.0628 13.8853L6.62121 9.19816C6.61899 9.1966 6.61691 9.19489 6.61469 9.19332C6.39039 9.02302 6.11861 8.93083 5.83949 8.9304L0.587683 8.9304C0.432226 8.93139 0.282738 8.86879 0.172391 8.75654C0.0621834 8.64414 2.40791e-07 8.49134 2.47757e-07 8.33199C0.000139043 8.25103 0.0158237 8.17079 0.046221 8.09595L1.02588 5.46214C1.09625 5.22625 1.31347 5.0696 1.57497 5.0696L5.83949 5.0696C6.11861 5.06917 6.39039 4.97698 6.61469 4.80682C6.61691 4.80525 6.61899 4.80354 6.62121 4.80198L13.063 0.114701C13.2441 -0.0188958 13.483 -0.0372491 13.6815 0.0673237C13.8774 0.170331 14.0004 0.377342 14 0.602992V0.602992Z" fill="white"/>
</svg>
