<svg width="27" height="36" viewBox="0 0 27 36" fill="none" xmlns="http://www.w3.org/2000/svg">
<path d="M13.7479 9.83628L19.9671 0.676991C20.1639 0.39823 19.9671 0 19.6128 0H7.17443C6.82017 0 6.62336 0.39823 6.82017 0.676991L13.0394 9.83628C13.1968 10.115 13.5904 10.115 13.7479 9.83628Z" fill="#2E9AD6"/>
<path d="M13.5 36L13.3249 35.9029C9.31772 33.7871 5.99135 30.9724 3.67651 27.7694C1.30331 24.45 0.0194525 20.7035 0 16.9376C0 16.8988 0 16.86 0 16.8212V3H27V16.8212C27 16.86 27 16.8988 27 16.9376C26.9805 20.7035 25.6967 24.45 23.3235 27.7694C21.0281 30.9724 17.7017 33.7871 13.6751 35.9029L13.5 36ZM0.778098 3.77647V16.8212C0.778098 16.8406 0.778098 16.8794 0.778098 16.8988V16.9182C0.817003 24.0618 5.5634 30.8559 13.5 35.1071C21.4366 30.8365 26.183 24.0618 26.2219 16.9182V16.8988C26.2219 16.8794 26.2219 16.8406 26.2219 16.8212V3.77647H0.778098Z" fill="#020203"/>
</svg>
