<svg width="16" height="16" viewBox="0 0 16 16" fill="none" xmlns="http://www.w3.org/2000/svg">
<path d="M8.00033 5.65672C6.71009 5.65672 5.65716 6.70965 5.65716 7.99989C5.65716 9.29012 6.71009 10.3431 8.00033 10.3431C9.29056 10.3431 10.3435 9.29012 10.3435 7.99989C10.3435 6.70965 9.29056 5.65672 8.00033 5.65672ZM15.0281 7.99989C15.0281 7.02957 15.0369 6.06805 14.9824 5.0995C14.9279 3.9745 14.6712 2.97606 13.8486 2.1534C13.0242 1.32899 12.0275 1.07411 10.9025 1.01961C9.93216 0.965122 8.97064 0.973912 8.00209 0.973912C7.03177 0.973912 6.07025 0.965122 5.1017 1.01961C3.9767 1.07411 2.97826 1.33075 2.1556 2.1534C1.33119 2.97782 1.0763 3.9745 1.02181 5.0995C0.96732 6.06981 0.976109 7.03133 0.976109 7.99989C0.976109 8.96844 0.96732 9.93172 1.02181 10.9003C1.0763 12.0253 1.33294 13.0237 2.1556 13.8464C2.98002 14.6708 3.9767 14.9257 5.1017 14.9802C6.07201 15.0347 7.03353 15.0259 8.00209 15.0259C8.9724 15.0259 9.93392 15.0347 10.9025 14.9802C12.0275 14.9257 13.0259 14.669 13.8486 13.8464C14.673 13.022 14.9279 12.0253 14.9824 10.9003C15.0386 9.93172 15.0281 8.9702 15.0281 7.99989ZM8.00033 11.6052C6.00521 11.6052 4.39505 9.995 4.39505 7.99989C4.39505 6.00477 6.00521 4.39461 8.00033 4.39461C9.99545 4.39461 11.6056 6.00477 11.6056 7.99989C11.6056 9.995 9.99545 11.6052 8.00033 11.6052ZM11.7533 5.08895C11.2874 5.08895 10.9113 4.71278 10.9113 4.24696C10.9113 3.78114 11.2874 3.40497 11.7533 3.40497C12.2191 3.40497 12.5953 3.78114 12.5953 4.24696C12.5954 4.35757 12.5737 4.46712 12.5314 4.56934C12.4892 4.67156 12.4272 4.76443 12.3489 4.84265C12.2707 4.92086 12.1779 4.98288 12.0756 5.02514C11.9734 5.06741 11.8639 5.08909 11.7533 5.08895Z" fill="white"/>
</svg>
