<svg width="153" height="18" viewBox="0 0 153 18" fill="none" xmlns="http://www.w3.org/2000/svg">
<g clip-path="url(#clip0)">
<path d="M78.0944 5.45577L71.2455 15.1726C71.0093 15.531 70.7338 15.6505 70.3008 15.6505H68.9231C68.5295 15.6505 68.2539 15.531 67.9784 15.1726L65.7741 12.0266L63.6486 15.1726C63.4124 15.531 63.1369 15.6505 62.7039 15.6505H61.3262C60.9326 15.6505 60.6571 15.531 60.3815 15.1726L53.5326 5.45577C53.2964 5.09736 53.4538 4.8186 53.8868 4.8186H56.1698C56.4453 4.8186 56.6422 4.93807 56.7996 5.17701L61.8379 12.4248C61.9167 12.5443 62.0347 12.5443 62.1528 12.4248L64.0816 9.63719L61.1688 5.45577C60.9326 5.09736 61.0901 4.8186 61.523 4.8186H63.806C64.0816 4.8186 64.2784 4.93807 64.4358 5.17701L69.4742 12.4248C69.5529 12.5443 69.671 12.5443 69.7891 12.4248L74.788 5.17701C74.9455 4.93807 75.1423 4.8186 75.4178 4.8186H77.7008C78.1338 4.8186 78.3306 5.09736 78.0944 5.45577Z" fill="white"/>
<path d="M92.6187 11.1903H82.3059C82.7782 12.9027 84.5102 13.3407 87.1081 13.3407C88.9581 13.3407 90.4145 13.1018 91.8709 12.5443C92.107 12.4646 92.54 12.4646 92.6975 12.7832L93.0124 13.3806C93.1698 13.739 93.2092 14.1372 92.8549 14.3761C91.6347 15.2523 89.7453 15.8098 86.9112 15.8098C81.5187 15.8098 79.1963 13.6992 79.1963 10.2346C79.1963 6.76995 81.3612 4.65933 86.6751 4.65933C92.1464 4.65933 94.1145 6.88942 94.1145 9.75668C94.0751 10.8717 93.839 11.1903 92.6187 11.1903ZM82.2272 9.2788H91.2411C90.8868 7.7257 89.6272 7.16818 86.7144 7.16818C83.7623 7.16818 82.5421 7.7257 82.2272 9.2788Z" fill="white"/>
<path d="M96.1611 15.1328V1.27438C96.1611 0.915975 96.3579 0.756683 96.6728 0.756683H98.6016C98.9558 0.756683 99.1133 0.955798 99.1133 1.27438V15.1328C99.1133 15.4912 98.9165 15.6505 98.6016 15.6505H96.6728C96.3579 15.6505 96.1611 15.4514 96.1611 15.1328Z" fill="white"/>
<path d="M116.944 10.2346C116.905 13.8186 115.33 15.8098 109.82 15.8098C106.828 15.8098 105.372 15.2124 104.624 14.1372V15.1328C104.624 15.4912 104.427 15.6505 104.112 15.6505H102.184C101.829 15.6505 101.672 15.4514 101.672 15.1328V1.27438C101.672 0.915975 101.869 0.756683 102.184 0.756683H104.112C104.467 0.756683 104.624 0.955798 104.624 1.27438V6.29208C105.372 5.25668 106.868 4.65934 109.82 4.65934C115.33 4.65934 116.984 6.65049 116.944 10.2346ZM113.913 10.2346C113.913 7.80536 112.418 7.16819 109.151 7.16819C105.884 7.16819 104.467 7.80536 104.467 10.2346C104.467 12.6638 105.884 13.3009 109.151 13.3009C112.457 13.3009 113.913 12.6638 113.913 10.2346Z" fill="white"/>
<path d="M119.07 15.1328V5.33632C119.07 4.97792 119.267 4.81862 119.582 4.81862H121.511C121.865 4.81862 122.022 5.01774 122.022 5.33632V6.41155C122.022 6.73013 122.337 6.80977 122.613 6.49119C123.439 5.45579 124.581 4.65933 127.258 4.65933C128.95 4.65933 129.895 5.01774 130.367 5.25668C130.997 5.57526 131.076 5.93367 131.076 6.49119V7.24783C131.076 7.885 130.682 7.92482 130.092 7.7257C129.147 7.40712 128.281 7.16818 126.628 7.16818C123.951 7.16818 122.022 7.92482 122.022 10.0753V15.1328C122.022 15.4912 121.826 15.6505 121.511 15.6505H119.582C119.228 15.6505 119.07 15.4514 119.07 15.1328Z" fill="white"/>
<path d="M133.319 2.11065V1.47348C133.319 0.796489 133.792 0.477905 135.012 0.477905C136.232 0.477905 136.704 0.796489 136.704 1.47348V2.11065C136.704 2.78764 136.232 3.10622 135.012 3.10622C133.752 3.10622 133.319 2.78764 133.319 2.11065ZM133.516 15.1328V5.33631C133.516 4.97791 133.713 4.81861 134.028 4.81861H135.957C136.311 4.81861 136.468 5.01773 136.468 5.33631V15.1328C136.468 15.4912 136.271 15.6505 135.957 15.6505H134.028C133.713 15.6505 133.516 15.4514 133.516 15.1328Z" fill="white"/>
<path d="M138.633 15.0133L143.75 10.354C143.868 10.2744 143.868 10.1151 143.75 10.0354L138.791 5.49559C138.436 5.13719 138.554 4.8186 139.027 4.8186H141.507C141.743 4.8186 141.979 4.85843 142.176 5.05754L145.6 8.36285C145.718 8.48232 145.797 8.48232 145.915 8.36285L149.3 5.05754C149.497 4.85843 149.694 4.8186 149.969 4.8186H152.41C152.882 4.8186 153.04 5.13719 152.646 5.49559L147.726 10.0354C147.608 10.1151 147.608 10.2345 147.726 10.354L152.843 15.0133C153.236 15.3717 153.079 15.6903 152.607 15.6903H150.166C149.93 15.6903 149.733 15.6106 149.497 15.4513L145.915 12.0266C145.797 11.9071 145.718 11.9071 145.6 12.0266L141.979 15.4513C141.782 15.6505 141.585 15.6903 141.31 15.6903H138.869C138.358 15.6505 138.2 15.3319 138.633 15.0133Z" fill="white"/>
<path d="M5.82481 0C6.21843 0 6.49396 0.159292 6.69077 0.477876L18.0664 17.0841C18.4206 17.6018 18.1845 18 17.594 18H12.3983C12.0046 18 11.7291 17.8407 11.4929 17.5221L0.156681 0.915929C-0.197577 0.39823 0.0385953 0 0.629025 0H5.82481Z" fill="#2E9AD6"/>
<path d="M19.9958 0C20.3894 0 20.665 0.159292 20.9011 0.477876L32.2768 17.0841C32.631 17.6018 32.3948 18 31.8044 18H26.5693C26.1756 18 25.9001 17.8407 25.6639 17.5221L14.3277 0.915929C14.0128 0.39823 14.2096 0 14.8 0H19.9958Z" fill="#2E9AD6"/>
<path d="M37.7489 9.83628L43.9681 0.676991C44.1649 0.39823 43.9681 0 43.6138 0H31.1754C30.8211 0 30.6243 0.39823 30.8211 0.676991L37.0403 9.83628C37.1978 10.115 37.5914 10.115 37.7489 9.83628Z" fill="#2E9AD6"/>
</g>
<defs>
<clipPath id="clip0">
<rect width="153" height="18" fill="white"/>
</clipPath>
</defs>
</svg>
