<svg width="34" height="32" viewBox="0 0 34 32" fill="none" xmlns="http://www.w3.org/2000/svg">
<circle cx="26" cy="10" r="8" fill="#2E9AD6"/>
<path d="M26.2046 7.35981C26.0233 7.17848 25.7285 7.17848 25.5473 7.35981C25.3648 7.54231 25.3648 7.83694 25.5473 8.01826C28.0971 10.5694 29.5018 13.9602 29.5018 17.5675C29.5018 25.0136 23.4442 31.0702 15.9979 31.0702C8.553 31.0702 2.49518 25.0126 2.49518 17.5675C2.49518 10.1601 8.49204 4.13164 15.8844 4.0695L13.1745 6.77859C12.992 6.95991 12.992 7.25474 13.1745 7.43704C13.2645 7.52819 13.3851 7.57387 13.5033 7.57387C13.6215 7.57387 13.7407 7.52819 13.832 7.43704L17.4826 3.78644L13.8318 0.136024C13.6493 -0.0453007 13.3557 -0.0453007 13.1745 0.136024C12.992 0.318525 12.992 0.613153 13.1745 0.794478L15.5349 3.15366C7.79046 3.40281 1.56543 9.76231 1.56543 17.5652C1.56543 25.5248 8.03961 32 15.9991 32C23.9599 32 30.4339 25.5246 30.4339 17.5663C30.4341 13.7099 28.931 10.0863 26.2046 7.35981Z" fill="#10084C"/>
</svg>
