<svg width="18" height="17" viewBox="0 0 18 17" fill="none" xmlns="http://www.w3.org/2000/svg">
<path d="M11.9254 10.5253C12.8845 9.38989 13.4281 7.97834 13.4281 6.44404C13.4281 2.88448 10.4227 0 6.71403 0C3.00533 0 0 2.88448 0 6.44404C0 10.0036 3.00533 12.8881 6.71403 12.8881C8.47247 12.8881 10.071 12.2437 11.286 11.1697L17.3286 16.9693L18 16.3249L11.9254 10.5253ZM6.71403 11.9675C3.54885 11.9675 0.959147 9.51264 0.959147 6.44404C0.959147 3.40614 3.54885 0.920578 6.71403 0.920578C9.87922 0.920578 12.4689 3.40614 12.4689 6.44404C12.4689 9.51264 9.91119 11.9675 6.71403 11.9675Z" fill="white"/>
</svg>
