<svg width="13" height="16" viewBox="0 0 13 16" fill="none" xmlns="http://www.w3.org/2000/svg">
<g opacity="0.6">
<path d="M11.75 2H9V1.5C9 0.671562 8.32844 0 7.5 0H5.5C4.67156 0 4 0.671562 4 1.5V2H1.25C0.559656 2 0 2.55966 0 3.25V4.25C0 4.52616 0.223844 4.75 0.5 4.75H12.5C12.7762 4.75 13 4.52616 13 4.25V3.25C13 2.55966 12.4403 2 11.75 2ZM5 1.5C5 1.22438 5.22437 1 5.5 1H7.5C7.77563 1 8 1.22438 8 1.5V2H5V1.5Z" fill="#10084C"/>
<path d="M0.948541 5.75C0.859322 5.75 0.788228 5.82456 0.792478 5.91369L1.20498 14.5712C1.2431 15.3725 1.90123 16 2.7031 16H10.2962C11.0981 16 11.7562 15.3725 11.7944 14.5712L12.2069 5.91369C12.2111 5.82456 12.14 5.75 12.0508 5.75H0.948541ZM8.49967 7C8.49967 6.72375 8.72342 6.5 8.99967 6.5C9.27592 6.5 9.49967 6.72375 9.49967 7V13.5C9.49967 13.7762 9.27592 14 8.99967 14C8.72342 14 8.49967 13.7762 8.49967 13.5V7ZM5.99967 7C5.99967 6.72375 6.22342 6.5 6.49967 6.5C6.77592 6.5 6.99967 6.72375 6.99967 7V13.5C6.99967 13.7762 6.77592 14 6.49967 14C6.22342 14 5.99967 13.7762 5.99967 13.5V7ZM3.49967 7C3.49967 6.72375 3.72342 6.5 3.99967 6.5C4.27592 6.5 4.49967 6.72375 4.49967 7V13.5C4.49967 13.7762 4.27592 14 3.99967 14C3.72342 14 3.49967 13.7762 3.49967 13.5V7Z" fill="#10084C"/>
</g>
</svg>
