<svg width="18" height="14" viewBox="0 0 18 14" fill="none" xmlns="http://www.w3.org/2000/svg">
<path d="M17.2973 1.84961C16.6855 2.12031 16.0316 2.30313 15.3426 2.3875C16.0457 1.96563 16.5871 1.29766 16.8402 0.503125C16.1828 0.893359 15.4551 1.17812 14.6781 1.3293C14.0559 0.664844 13.1699 0.25 12.1926 0.25C10.3117 0.25 8.78945 1.77578 8.78945 3.65664C8.78945 3.92383 8.81758 4.18398 8.87734 4.43359C6.04727 4.29297 3.53711 2.93594 1.86016 0.872266C1.56836 1.375 1.39961 1.96211 1.39961 2.58437C1.39961 3.76562 2.0043 4.80977 2.91836 5.42148C2.35586 5.40742 1.82852 5.25273 1.37148 4.99609V5.03828C1.37148 6.69062 2.5457 8.06523 4.10312 8.37813C3.81836 8.45547 3.51602 8.49766 3.20664 8.49766C2.98867 8.49766 2.77422 8.47656 2.5668 8.43437C2.99922 9.78789 4.25781 10.7723 5.74844 10.8004C4.58477 11.7145 3.11523 12.2594 1.51914 12.2594C1.24492 12.2594 0.974219 12.2418 0.707031 12.2102C2.2082 13.1875 3.99766 13.75 5.91719 13.75C12.1855 13.75 15.6098 8.55742 15.6098 4.05391C15.6098 3.90625 15.6062 3.75859 15.5992 3.61445C16.2637 3.13281 16.8402 2.53516 17.2973 1.84961Z" fill="white"/>
</svg>
