<svg width="395" height="68" viewBox="0 0 395 68" fill="none" xmlns="http://www.w3.org/2000/svg">
<path d="M-11 15.5C-11 10.3706 -11 7.80593 -10.0814 5.8134C-9.08459 3.65109 -7.34891 1.91541 -5.1866 0.918568C-3.19407 0 -0.629379 0 4.5 0H353.135C356.191 0 357.719 0 359.099 0.40548C360.602 0.846821 361.979 1.63475 363.121 2.70583C364.171 3.68988 364.945 5.00699 366.495 7.64119L388.26 44.6412C392.515 51.876 394.643 55.4934 394.505 58.4645C394.356 61.675 392.672 64.6181 389.981 66.3745C387.49 68 383.293 68 374.9 68H4.49999C-0.629382 68 -3.19407 68 -5.1866 67.0814C-7.34891 66.0846 -9.08459 64.3489 -10.0814 62.1866C-11 60.1941 -11 57.6294 -11 52.5V15.5Z" fill="#2E9AD6"/>
</svg>
